<?xml version="1.0" encoding="utf-8"?>
<!-- Generator: Adobe Illustrator 24.3.0, SVG Export Plug-In . SVG Version: 6.00 Build 0)  -->
<svg version="1.1" id="Layer_1" xmlns="http://www.w3.org/2000/svg" xmlns:xlink="http://www.w3.org/1999/xlink" x="0px" y="0px"
	 viewBox="0 0 1280 720" style="enable-background:new 0 0 1280 720;" xml:space="preserve">
<style type="text/css">
	.st0{fill:none;}
	.st1{fill:none;stroke:#808080;stroke-width:0.5;stroke-dasharray:2,4;}
	.st2{fill:none;stroke:#000000;}
	.st3{font-family:'Helvetica';}
	.st4{font-size:12px;}
	.st5{fill:none;stroke:#B22222;stroke-width:2;}
	.st6{fill:#B22222;stroke:#B22222;stroke-width:0.7504;stroke-miterlimit:13.52;}
	.st7{fill:none;stroke:#2E8B57;stroke-width:2;}
	.st8{fill:#2E8B57;stroke:#2E8B57;stroke-width:0.7504;stroke-miterlimit:13.52;}
	.st9{font-family:'MyriadPro-Regular';}
	.st10{font-size:18px;}
</style>
<desc>Produced by GNUPLOT 5.2 patchlevel 8</desc>
<g id="gnuplot_canvas">
	<rect y="0" class="st0" width="1280" height="720"/>
	<g>
		<path class="st1" d="M71.9,662.4H1080"/>
	</g>
	<g>
		<path class="st2" d="M71.9,662.4h9"/>
		<g transform="translate(63.6,666.3)">
			<text transform="matrix(1 0 0 1 -6.6738 1.279900e-05)" class="st3 st4">0</text>
		</g>
	</g>
	<g>
		<path class="st1" d="M71.9,601.6H1080"/>
	</g>
	<g>
		<path class="st2" d="M71.9,601.6h9"/>
		<g transform="translate(63.6,605.5)">
			<text transform="matrix(1 0 0 1 -16.6816 2.063543e-05)" class="st3 st4">0.5</text>
		</g>
	</g>
	<g>
		<path class="st1" d="M71.9,540.7H1080"/>
	</g>
	<g>
		<path class="st2" d="M71.9,540.7h9"/>
		<g transform="translate(63.6,544.6)">
			<text transform="matrix(1 0 0 1 -6.6738 1.640667e-05)" class="st3 st4">1</text>
		</g>
	</g>
	<g>
		<path class="st1" d="M71.9,479.9H1080"/>
	</g>
	<g>
		<path class="st2" d="M71.9,479.9h9"/>
		<g transform="translate(63.6,483.8)">
			<text transform="matrix(1 0 0 1 -16.6816 1.661370e-05)" class="st3 st4">1.5</text>
		</g>
	</g>
	<g>
		<path class="st1" d="M71.9,419.1H1080"/>
	</g>
	<g>
		<path class="st2" d="M71.9,419.1h9"/>
		<g transform="translate(63.6,423.0)">
			<text transform="matrix(1 0 0 1 -6.6738 1.682073e-05)" class="st3 st4">2</text>
		</g>
	</g>
	<g>
		<path class="st1" d="M71.9,358.2H1080"/>
	</g>
	<g>
		<path class="st2" d="M71.9,358.2h9"/>
		<g transform="translate(63.6,362.1)">
			<text transform="matrix(1 0 0 1 -16.6816 1.692424e-05)" class="st3 st4">2.5</text>
		</g>
	</g>
	<g>
		<path class="st1" d="M71.9,297.4H1080"/>
	</g>
	<g>
		<path class="st2" d="M71.9,297.4h9"/>
		<g transform="translate(63.6,301.3)">
			<text transform="matrix(1 0 0 1 -6.6738 1.661370e-05)" class="st3 st4">3</text>
		</g>
	</g>
	<g>
		<path class="st1" d="M71.9,236.6H1080"/>
	</g>
	<g>
		<path class="st2" d="M71.9,236.6h9"/>
		<g transform="translate(63.6,240.5)">
			<text transform="matrix(1 0 0 1 -16.6816 1.682073e-05)" class="st3 st4">3.5</text>
		</g>
	</g>
	<g>
		<path class="st1" d="M71.9,175.8H1080"/>
	</g>
	<g>
		<path class="st2" d="M71.9,175.8h9"/>
		<g transform="translate(63.6,179.7)">
			<text transform="matrix(1 0 0 1 -6.6738 3.202776e-05)" class="st3 st4">4</text>
		</g>
	</g>
	<g>
		<path class="st1" d="M71.9,114.9H1080"/>
	</g>
	<g>
		<path class="st2" d="M71.9,114.9h9"/>
		<g transform="translate(63.6,118.8)">
			<text transform="matrix(1 0 0 1 -16.6816 0)" class="st3 st4">4.5</text>
		</g>
	</g>
	<g>
		<path class="st1" d="M71.9,54.1H1080"/>
	</g>
	<g>
		<path class="st2" d="M71.9,54.1h9"/>
		<g transform="translate(63.6,58.0)">
			<text transform="matrix(1 0 0 1 -6.6738 1.682073e-05)" class="st3 st4">5</text>
		</g>
	</g>
	<g>
		<path class="st2" d="M71.9,662.4v-9"/>
		<g transform="translate(71.9,684.3)">
			<text transform="matrix(1 0 0 1 -3.3369 1.279900e-05)" class="st3 st4">0</text>
		</g>
	</g>
	<g>
		<path class="st2" d="M576,662.4v-9"/>
	</g>
	<g>
		<path class="st2" d="M71.9,54.1v608.3H1080V54.1H71.9z"/>
	</g>
	<g>
		<g transform="translate(19.0,358.3) rotate(270)">
			<text transform="matrix(1 0 0 1 -47.2442 0)" class="st3 st4">Average time (us)</text>
		</g>
	</g>
	<g id="gnuplot_plot_1">
		<g>
			<g transform="translate(1155.4,67.0)">
				<text transform="matrix(1 0 0 1 0 1.682073e-05)" class="st3 st4">Native Copy1</text>
			</g>
		</g>
		<g>
			<path class="st5" d="M1104.9,63.1h42.2 M72.7,661.8h12.6l13.5-0.2l26.9-0.2l53.7-0.3l107.6-0.5l215-1.2l430.1-2.7"/>
		</g>
	</g>
	<g id="gnuplot_plot_2">
		<g>
			<g transform="translate(72.7,661.8) scale(3.38)">
				<g id="gpPt6">
					<circle id="gpPt5" class="st6" cx="72.7" cy="661.8" r="3.4"/>
				</g>
			</g>
			<g transform="translate(85.3,661.8) scale(3.38)">
				<g id="gpPt6_1_">
					<circle id="gpPt5_1_" class="st6" cx="85.3" cy="661.8" r="3.4"/>
				</g>
			</g>
			<g transform="translate(98.8,661.6) scale(3.38)">
				<g id="gpPt6_2_">
					<circle id="gpPt5_2_" class="st6" cx="98.8" cy="661.6" r="3.4"/>
				</g>
			</g>
			<g transform="translate(125.7,661.4) scale(3.38)">
				<g id="gpPt6_3_">
					<circle id="gpPt5_3_" class="st6" cx="125.7" cy="661.4" r="3.4"/>
				</g>
			</g>
			<g transform="translate(179.4,661.1) scale(3.38)">
				<g id="gpPt6_4_">
					<circle id="gpPt5_4_" class="st6" cx="179.4" cy="661.1" r="3.4"/>
				</g>
			</g>
			<g transform="translate(287.0,660.6) scale(3.38)">
				<g id="gpPt6_5_">
					<circle id="gpPt5_5_" class="st6" cx="287" cy="660.6" r="3.4"/>
				</g>
			</g>
			<g transform="translate(502.0,659.4) scale(3.38)">
				<g id="gpPt6_6_">
					<circle id="gpPt5_6_" class="st6" cx="502" cy="659.4" r="3.4"/>
				</g>
			</g>
			<g transform="translate(932.1,656.7) scale(3.38)">
				<g id="gpPt6_7_">
					<circle id="gpPt5_7_" class="st6" cx="932.1" cy="656.7" r="3.4"/>
				</g>
			</g>
		</g>
	</g>
	<g id="gnuplot_plot_3">
		<g>
			<g transform="translate(1155.4,85.0)">
				<text transform="matrix(1 0 0 1 0 1.682073e-05)" class="st3 st4">Wasmtime Copy1</text>
			</g>
		</g>
		<g>
			<path class="st7" d="M1104.9,81.1h42.2 M72.7,527.5l12.6-5.9l13.5-14.9l26.9-6.9l53.7-28.7L287,415.3l215-123.9L932.1,89.3"/>
		</g>
	</g>
	<g id="gnuplot_plot_4">
		<g>
			<g transform="translate(72.7,527.5) scale(3.38)">
				<g id="gpPt6_8_">
					<circle id="gpPt5_8_" class="st8" cx="72.7" cy="527.5" r="3.4"/>
				</g>
			</g>
			<g transform="translate(85.3,521.6) scale(3.38)">
				<g id="gpPt6_9_">
					<circle id="gpPt5_9_" class="st8" cx="85.3" cy="521.6" r="3.4"/>
				</g>
			</g>
			<g transform="translate(98.8,506.7) scale(3.38)">
				<g id="gpPt6_10_">
					<circle id="gpPt5_10_" class="st8" cx="98.8" cy="506.7" r="3.4"/>
				</g>
			</g>
			<g transform="translate(125.7,499.8) scale(3.38)">
				<g id="gpPt6_11_">
					<circle id="gpPt5_11_" class="st8" cx="125.7" cy="499.8" r="3.4"/>
				</g>
			</g>
			<g transform="translate(179.4,471.1) scale(3.38)">
				<g id="gpPt6_12_">
					<circle id="gpPt5_12_" class="st8" cx="179.4" cy="471.1" r="3.4"/>
				</g>
			</g>
			<g transform="translate(287.0,415.3) scale(3.38)">
				<g id="gpPt6_13_">
					<circle id="gpPt5_13_" class="st8" cx="287" cy="415.3" r="3.4"/>
				</g>
			</g>
			<g transform="translate(502.0,291.4) scale(3.38)">
				<g id="gpPt6_14_">
					<circle id="gpPt5_14_" class="st8" cx="502" cy="291.4" r="3.4"/>
				</g>
			</g>
			<g transform="translate(932.1,89.3) scale(3.38)">
				<g id="gpPt6_15_">
					<circle id="gpPt5_15_" class="st8" cx="932.1" cy="89.3" r="3.4"/>
				</g>
			</g>
		</g>
	</g>
	<g>
		<path class="st2" d="M71.9,54.1v608.3H1080V54.1H71.9z"/>
	</g>
	<text transform="matrix(1 0 0 1 511 681.2756)" class="st9 st10">Buffer Size</text>
</g>
</svg>
