<?xml version="1.0" encoding="utf-8"?>
<!-- Generator: Adobe Illustrator 24.3.0, SVG Export Plug-In . SVG Version: 6.00 Build 0)  -->
<svg version="1.1" id="Layer_1" xmlns="http://www.w3.org/2000/svg" xmlns:xlink="http://www.w3.org/1999/xlink" x="0px" y="0px"
	 viewBox="0 0 1256 674" style="enable-background:new 0 0 1256 674;" xml:space="preserve">
<style type="text/css">
	.st0{fill:none;}
	.st1{fill:none;stroke:#808080;stroke-width:0.5;stroke-dasharray:2,4;}
	.st2{fill:none;stroke:#000000;}
	.st3{font-family:'Helvetica';}
	.st4{font-size:12px;}
	.st5{font-family:'ArialMT';}
	.st6{fill:none;stroke:#B22222;stroke-width:2;}
	.st7{fill:#B22222;stroke:#B22222;stroke-width:2.5364;stroke-miterlimit:45.6976;}
	.st8{fill:none;stroke:#2E8B57;stroke-width:2;}
	.st9{fill:none;stroke:#008B8B;stroke-width:2;}
</style>
<desc>Produced by GNUPLOT 5.2 patchlevel 8</desc>
<g id="gnuplot_canvas">
	<rect y="-34.3" class="st0" width="1280" height="720"/>
	<g>
		<path class="st1" d="M71.9,628.1h1016.4"/>
	</g>
	<g>
		<path class="st2" d="M71.9,628.1h9"/>
		<g transform="translate(63.6,666.3)">
			<text transform="matrix(1 0 0 1 -6.6738 -34.2756)" class="st3 st4">0</text>
		</g>
	</g>
	<g>
		<path class="st1" d="M71.9,526.7h1016.4"/>
	</g>
	<g>
		<path class="st2" d="M71.9,526.7h9"/>
		<g transform="translate(63.6,564.9)">
			<text transform="matrix(1 0 0 1 -16.6816 -34.2756)" class="st3 st4">0.2</text>
		</g>
	</g>
	<g>
		<path class="st1" d="M71.9,425.3h1016.4"/>
	</g>
	<g>
		<path class="st2" d="M71.9,425.3h9"/>
		<g transform="translate(63.6,463.5)">
			<text transform="matrix(1 0 0 1 -16.6816 -34.2756)" class="st3 st4">0.4</text>
		</g>
	</g>
	<g>
		<path class="st1" d="M71.9,323.9h1016.4"/>
	</g>
	<g>
		<path class="st2" d="M71.9,323.9h9"/>
		<g transform="translate(63.6,362.1)">
			<text transform="matrix(1 0 0 1 -16.6816 -34.2756)" class="st3 st4">0.6</text>
		</g>
	</g>
	<g>
		<path class="st1" d="M71.9,222.6h1016.4"/>
	</g>
	<g>
		<path class="st2" d="M71.9,222.6h9"/>
		<g transform="translate(63.6,260.8)">
			<text transform="matrix(1 0 0 1 -16.6816 -34.2756)" class="st3 st4">0.8</text>
		</g>
	</g>
	<g>
		<path class="st1" d="M71.9,121.2h1016.4"/>
	</g>
	<g>
		<path class="st2" d="M71.9,121.2h9"/>
		<g transform="translate(63.6,159.4)">
			<text transform="matrix(1 0 0 1 -6.6738 -34.2756)" class="st3 st4">1</text>
		</g>
	</g>
	<g>
		<path class="st1" d="M71.9,19.8h1016.4"/>
	</g>
	<g>
		<path class="st2" d="M71.9,19.8h9"/>
		<g transform="translate(63.6,58.0)">
			<text transform="matrix(1 0 0 1 -16.6816 -34.2756)" class="st3 st4">1.2</text>
		</g>
	</g>
	<g>
		<path class="st2" d="M71.9,628.1v-9"/>
		<g transform="translate(71.9,684.3)">
			<text transform="matrix(1 0 0 1 -3.3369 -34.2756)" class="st3 st4">0</text>
		</g>
	</g>
	<g>
		<path class="st2" d="M241.3,628.1v-9"/>
	</g>
	<g>
		<path class="st2" d="M580.1,628.1v-9"/>
	</g>
	<g>
		<path class="st2" d="M71.9,19.8v608.3h1016.4V19.8H71.9z"/>
	</g>
	<g>
		<g transform="translate(19.0,358.3) rotate(270)">
			<text transform="matrix(1 0 0 1 -12.9688 0)" class="st3 st4">Average time (us)</text>
		</g>
	</g>
	<g>
		<text transform="matrix(1 0 0 1 523 659)" class="st5 st4">Buffer Size</text>
	</g>
	<g id="gnuplot_plot_1">
		<g>
			<g transform="translate(1163.7,67.0)">
				<text transform="matrix(1 0 0 1 0 -34.2756)" class="st3 st4">Native Null</text>
			</g>
		</g>
		<g>
			<path class="st6" d="M1113.2,28.8h42.2 M72.7,627.2h12.8H99h27.1h54.2h108.4h216.9h433.6"/>
		</g>
	</g>
	<g id="gnuplot_plot_2">
		<g>
			<g transform="translate(72.7,661.5) scale(3.38)">
				<g id="gpPt6">
					<circle id="gpPt5" class="st7" cx="72.7" cy="627.2" r="3.4"/>
				</g>
			</g>
			<g transform="translate(85.5,661.5) scale(3.38)">
				<g id="gpPt6_1_">
					<circle id="gpPt5_1_" class="st7" cx="85.5" cy="627.2" r="3.4"/>
				</g>
			</g>
			<g transform="translate(99.0,661.5) scale(3.38)">
				<g id="gpPt6_2_">
					<circle id="gpPt5_2_" class="st7" cx="99" cy="627.2" r="3.4"/>
				</g>
			</g>
			<g transform="translate(126.1,661.5) scale(3.38)">
				<g id="gpPt6_3_">
					<circle id="gpPt5_3_" class="st7" cx="126.1" cy="627.2" r="3.4"/>
				</g>
			</g>
			<g transform="translate(180.3,661.5) scale(3.38)">
				<g id="gpPt6_4_">
					<circle id="gpPt5_4_" class="st7" cx="180.3" cy="627.2" r="3.4"/>
				</g>
			</g>
			<g transform="translate(288.7,661.5) scale(3.38)">
				<g id="gpPt6_5_">
					<circle id="gpPt5_5_" class="st7" cx="288.7" cy="627.2" r="3.4"/>
				</g>
			</g>
			<g transform="translate(505.6,661.5) scale(3.38)">
				<g id="gpPt6_6_">
					<circle id="gpPt5_6_" class="st7" cx="505.6" cy="627.2" r="3.4"/>
				</g>
			</g>
			<g transform="translate(939.2,661.5) scale(3.38)">
				<g id="gpPt6_7_">
					<circle id="gpPt5_7_" class="st7" cx="939.2" cy="627.2" r="3.4"/>
				</g>
			</g>
		</g>
	</g>
	<g id="gnuplot_plot_3">
		<g>
			<g transform="translate(1163.7,85.0)">
				<text transform="matrix(1 0 0 1 0 -34.2756)" class="st3 st4">Wasmer Null</text>
			</g>
		</g>
		<g>
			<path class="st8" d="M1113.2,46.8h42.2 M72.7,299l12.8-3.3l13.5,2.8l27.1,8.3l54.2,5.9l108.4-7.2l216.9,6.7l433.6,3.1"/>
		</g>
	</g>
	<g id="gnuplot_plot_5">
		<g>
			<g transform="translate(1163.7,103.0)">
				<text transform="matrix(1 0 0 1 0 -34.2756)" class="st3 st4">Wasmtime Null</text>
			</g>
		</g>
		<g>
			<path class="st9" d="M1113.2,64.8h42.2 M72.7,116.1L85.5,167l13.5,6.4l27.1-18.8l54.2,28.3l108.4,2.8l216.9-8.2l433.6,9.3"/>
		</g>
	</g>
	<g>
		<path class="st2" d="M71.9,19.8v608.3h1016.4V19.8H71.9z"/>
	</g>
</g>
</svg>
