<?xml version="1.0" encoding="utf-8"?>
<!-- Generator: Adobe Illustrator 23.0.4, SVG Export Plug-In . SVG Version: 6.00 Build 0)  -->
<svg version="1.0" id="Layer_1" xmlns="http://www.w3.org/2000/svg" xmlns:xlink="http://www.w3.org/1999/xlink" x="0px" y="0px"
	 viewBox="0 0 215.1 58.8" style="enable-background:new 0 0 215.1 58.8;" xml:space="preserve">
<style type="text/css">
	.st0{fill:#FFFFFF;stroke:#000000;stroke-miterlimit:10;}
	.st1{fill:#605FA4;}
	.st2{fill:#192433;}
	.st3{fill:#F3B73B;}
	.st4{fill:#DD4921;stroke:#F3B73B;stroke-width:2;stroke-miterlimit:10;}
	.st5{fill:#DD4921;}
</style>
<path class="st0" d="M199.8,54.1h-22.9c-6.6,0-12-5.4-12-12V19.2c0-6.6,5.4-12,12-12h22.9c6.6,0,12,5.4,12,12v22.9
	C211.8,48.7,206.4,54.1,199.8,54.1z"/>
<rect x="173.8" y="14.5" class="st1" width="13.4" height="13.4"/>
<rect x="173.8" y="33.8" class="st2" width="13.4" height="13.4"/>
<rect x="192.8" y="33.8" class="st3" width="13.4" height="13.4"/>
<circle class="st4" cx="129.9" cy="29.6" r="24.6"/>
<circle class="st1" cx="86.8" cy="20" r="7.5"/>
<circle class="st1" cx="86.8" cy="38.5" r="7.5"/>
<circle class="st1" cx="67.4" cy="39.4" r="7.5"/>
<circle class="st1" cx="48.1" cy="39.4" r="7.5"/>
<circle class="st3" cx="67.4" cy="20" r="7.5"/>
<rect y="12.5" class="st5" width="30.7" height="15"/>
</svg>
