<?xml version="1.0" encoding="utf-8"?>
<!-- Generator: Adobe Illustrator 23.0.6, SVG Export Plug-In . SVG Version: 6.00 Build 0)  -->
<svg version="1.1" id="Layer_1" xmlns="http://www.w3.org/2000/svg" xmlns:xlink="http://www.w3.org/1999/xlink" x="0px" y="0px"
	 viewBox="0 0 201.6 303.1" style="enable-background:new 0 0 201.6 303.1;" xml:space="preserve">
<style type="text/css">
	.st0{fill:#605FA4;}
	.st1{fill:none;stroke:#D989BC;stroke-miterlimit:10;}
	.st2{fill:#D989BC;}
	.st3{fill:#F3B73B;}
	.st4{fill:#DD4921;}
	.st5{font-family:'IBMPlexMono';}
	.st6{font-size:8.9127px;}
	.st7{font-size:12px;}
	.st8{fill:#666666;}
	.st9{fill:#999999;}
</style>
<path class="st0" d="M188.1,303.1H13.3c-6.6,0-12-5.4-12-12V189.6c0-6.6,5.4-12,12-12h174.8c6.6,0,12,5.4,12,12v101.5
	C200.1,297.7,194.7,303.1,188.1,303.1z"/>
<g id="EWCbGB.tif">
	
		<image style="overflow:visible;" width="274" height="184" id="Layer_0_1_" xlink:href="FCAD6A13E7A103AF.png"  transform="matrix(0.2866 0 0 0.2697 118.7276 217.5615)">
	</image>
</g>
<g id="VvrLjg.tif">
	
		<image style="overflow:visible;" width="306" height="165" id="Layer_0_2_" xlink:href="FCAD6A13E7A103AD.png"  transform="matrix(0.3244 0 0 0.3565 4.7973 215.2386)">
	</image>
</g>
<g>
	<g>
		<g>
			<line class="st1" x1="41.8" y1="260.6" x2="41.8" y2="271.3"/>
			<g>
				<polygon class="st2" points="41.8,276.6 38.7,269.1 41.8,270.9 44.8,269.1 				"/>
			</g>
		</g>
	</g>
	<g>
		<g>
			<line class="st1" x1="93" y1="205.4" x2="155.2" y2="221.4"/>
			<g>
				<polygon class="st2" points="160.3,222.7 152.3,223.8 154.8,221.3 153.8,217.9 				"/>
			</g>
		</g>
	</g>
	<g>
		<g>
			<line class="st1" x1="93" y1="205" x2="46.8" y2="221"/>
			<g>
				<polygon class="st2" points="41.8,222.7 47.8,217.4 47.2,220.9 49.8,223.2 				"/>
			</g>
		</g>
	</g>
	<g>
		<g>
			<line class="st1" x1="99.9" y1="165.4" x2="99.9" y2="176.1"/>
			<g>
				<polygon class="st2" points="99.9,181.4 96.9,173.9 99.9,175.7 103,173.9 				"/>
			</g>
		</g>
	</g>
	<g>
		<g>
			<line class="st1" x1="99.9" y1="110.8" x2="99.9" y2="121.5"/>
			<g>
				<polygon class="st2" points="99.9,126.8 96.9,119.3 99.9,121.1 103,119.3 				"/>
			</g>
		</g>
	</g>
	<g>
		<g>
			<line class="st1" x1="99.9" y1="71.9" x2="99.9" y2="84.7"/>
			<g>
				<polygon class="st2" points="99.9,89.9 96.9,82.5 99.9,84.3 103,82.5 				"/>
			</g>
		</g>
	</g>
	<rect x="52.2" y="39.9" class="st3" width="107.7" height="40"/>
	<g>
		<polygon id="polygon3709" class="st4" points="91,2.6 122.1,2.6 114.4,23.9 83.2,23.9 		"/>
		<text transform="matrix(1 0 0 1 93.0491 15.9904)" class="st5 st6">*.mi</text>
	</g>
	<text transform="matrix(1 0 0 1 64.6895 64.9938)" class="st5 st7">svg-creator</text>
	<rect x="52.6" y="126.3" class="st3" width="107.7" height="40"/>
	<g>
		<polygon id="polygon3709_1_" class="st4" points="86.4,89.9 122.4,89.9 113.4,114.4 77.5,114.4 		"/>
		<text transform="matrix(1 0 0 1 87.3069 103.3201)" class="st5 st6">*.svg</text>
	</g>
	<text transform="matrix(1 0 0 1 60.6895 149.9938)" class="st5 st7">svg-interface</text>
	<g>
		<polygon id="polygon3709_2_" class="st4" points="80.6,181 120.8,181 110.8,205.4 70.6,205.4 		"/>
		<text transform="matrix(1 0 0 1 80.4465 194.3511)" class="st5 st6">*.json</text>
	</g>
	<g>
		<polygon id="polygon3709_3_" class="st4" points="24.5,276.5 64.7,276.5 54.7,300.9 14.5,300.9 		"/>
		<text transform="matrix(1 0 0 1 24.3286 289.8791)" class="st5 st6">*.lf</text>
	</g>
	<g>
		<g>
			<line class="st1" x1="99.9" y1="23.9" x2="99.9" y2="34.6"/>
			<g>
				<polygon class="st2" points="99.9,39.9 96.9,32.5 99.9,34.3 103,32.5 				"/>
			</g>
		</g>
	</g>
	<path id="path3_1_" class="st4" d="M195.1,226.4l-0.5-0.3c0-0.1,0-0.1,0-0.2l0.5-0.4c0,0,0.1-0.1,0.1-0.2c0-0.1-0.1-0.1-0.1-0.1
		l-0.6-0.2c0-0.1,0-0.1,0-0.2l0.4-0.5c0-0.1,0-0.1,0-0.2c0-0.1-0.1-0.1-0.1-0.1l-0.6-0.1c0,0,0-0.1-0.1-0.1l0.3-0.6
		c0-0.1,0-0.1,0-0.2c0-0.1-0.1-0.1-0.2-0.1h-0.6l-0.1-0.1l0.1-0.6c0-0.1,0-0.1,0-0.2c0,0-0.1-0.1-0.2,0l-0.6,0.1l-0.1-0.1v-0.6
		c0-0.1,0-0.1-0.1-0.2c-0.1,0-0.1,0-0.2,0l-0.6,0.3l-0.1-0.1l-0.1-0.6c0-0.1-0.1-0.1-0.1-0.1c-0.1,0-0.1,0-0.2,0l-0.5,0.4
		c-0.1,0-0.1,0-0.2,0l-0.2-0.6c0-0.1-0.1-0.1-0.1-0.1c-0.1,0-0.1,0-0.2,0.1l-0.4,0.5c-0.1,0-0.1,0-0.2,0l-0.3-0.5
		c0-0.1-0.1-0.1-0.2-0.1c-0.1,0-0.1,0-0.2,0.1l-0.3,0.5c-0.1,0-0.1,0-0.2,0l-0.4-0.5c0,0-0.1-0.1-0.2-0.1c-0.1,0-0.1,0.1-0.1,0.1
		l-0.2,0.6c-0.1,0-0.1,0-0.2,0l-0.5-0.4c-0.1,0-0.1,0-0.2,0c-0.1,0-0.1,0.1-0.1,0.1l-0.1,0.6c0,0-0.1,0-0.1,0.1l-0.6-0.3
		c-0.1,0-0.1,0-0.2,0c-0.1,0-0.1,0.1-0.1,0.2v0.6l-0.1,0.1l-0.6-0.1c-0.1,0-0.1,0-0.2,0c0,0-0.1,0.1,0,0.2l0.1,0.6l-0.1,0.1h-0.6
		c-0.1,0-0.1,0-0.2,0.1c0,0.1,0,0.1,0,0.2l0.3,0.6l-0.1,0.1L183,224c-0.1,0-0.1,0.1-0.1,0.1c0,0.1,0,0.1,0,0.2l0.4,0.5
		c0,0.1,0,0.1,0,0.2l-0.6,0.2c-0.1,0-0.1,0.1-0.1,0.1c0,0.1,0,0.1,0.1,0.2l0.5,0.4c0,0.1,0,0.1,0,0.2l-0.5,0.3
		c-0.1,0-0.1,0.1-0.1,0.2c0,0.1,0,0.1,0.1,0.2l0.5,0.3c0,0.1,0,0.1,0,0.2l-0.5,0.4c0,0-0.1,0.1-0.1,0.2c0,0.1,0.1,0.1,0.1,0.1
		l0.6,0.2c0,0.1,0,0.1,0,0.2l-0.4,0.5c0,0.1,0,0.1,0,0.2c0,0.1,0.1,0.1,0.1,0.1l0.6,0.1c0,0,0,0.1,0.1,0.1l-0.3,0.6
		c0,0.1,0,0.1,0,0.2c0,0.1,0.1,0.1,0.2,0.1h0.6l0.1,0.1l-0.1,0.6c0,0.1,0,0.1,0,0.2c0,0,0.1,0.1,0.2,0l0.6-0.1l0.1,0.1v0.6
		c0,0.1,0,0.1,0.1,0.2c0.1,0,0.1,0,0.2,0l0.6-0.3l0.1,0.1l0.1,0.6c0,0.1,0.1,0.1,0.1,0.1c0.1,0,0.1,0,0.2,0l0.5-0.4
		c0.1,0,0.1,0,0.2,0l0.2,0.6c0,0.1,0.1,0.1,0.1,0.1c0.1,0,0.1,0,0.2-0.1l0.4-0.5c0.1,0,0.1,0,0.2,0l0.3,0.5c0,0.1,0.1,0.1,0.2,0.1
		c0.1,0,0.1,0,0.2-0.1l0.3-0.5c0.1,0,0.1,0,0.2,0l0.4,0.5c0,0,0.1,0.1,0.2,0.1c0.1,0,0.1-0.1,0.1-0.1l0.2-0.6c0.1,0,0.1,0,0.2,0
		l0.5,0.4c0.1,0,0.1,0,0.2,0c0.1,0,0.1-0.1,0.1-0.1l0.1-0.6c0,0,0.1,0,0.1-0.1l0.6,0.3c0.1,0,0.1,0,0.2,0c0.1,0,0.1-0.1,0.1-0.2
		v-0.6l0.1-0.1l0.6,0.1c0.1,0,0.1,0,0.2,0c0,0,0.1-0.1,0-0.2l-0.1-0.6l0.1-0.1h0.6c0.1,0,0.1,0,0.2-0.1c0-0.1,0-0.1,0-0.2l-0.3-0.6
		l0.1-0.1l0.6-0.1c0.1,0,0.1-0.1,0.1-0.1c0-0.1,0-0.1,0-0.2l-0.4-0.5c0-0.1,0-0.1,0-0.2l0.6-0.2c0.1,0,0.1-0.1,0.1-0.1
		c0-0.1,0-0.1-0.1-0.2l-0.5-0.4c0-0.1,0-0.1,0-0.2l0.5-0.3c0.1,0,0.1-0.1,0.1-0.2C195.1,226.5,195.1,226.5,195.1,226.4L195.1,226.4z
		 M191.5,230.9c-0.2,0-0.3-0.2-0.3-0.5c0-0.2,0.2-0.3,0.5-0.3c0.2,0,0.3,0.2,0.3,0.5C191.9,230.8,191.7,230.9,191.5,230.9z
		 M191.3,229.7c-0.2,0-0.4,0.1-0.4,0.3l-0.2,0.9c-0.6,0.3-1.2,0.4-1.9,0.4s-1.4-0.2-2-0.4l-0.2-0.9c0-0.2-0.2-0.3-0.4-0.3l-0.8,0.2
		c-0.1-0.2-0.3-0.3-0.4-0.5h3.8h0.1V228c0,0,0,0-0.1,0h-1.1v-1h1.2c0.1,0,0.6,0,0.7,0.6c0,0.2,0.2,0.8,0.2,1
		c0.1,0.2,0.4,0.7,0.7,0.7h1.9c0,0,0,0,0.1,0c-0.1,0.2-0.3,0.4-0.4,0.5L191.3,229.7L191.3,229.7z M186,230.9c-0.2,0-0.4-0.1-0.5-0.3
		c0-0.2,0.1-0.4,0.3-0.5c0.2,0,0.4,0.1,0.5,0.3C186.3,230.6,186.2,230.8,186,230.9z M184.5,225c0.1,0.2,0,0.4-0.2,0.5
		s-0.4,0-0.5-0.2s0-0.4,0.2-0.5S184.4,224.8,184.5,225z M184.1,226l0.8-0.4c0.2-0.1,0.3-0.3,0.2-0.5l-0.2-0.4h0.7v3h-1.3
		c-0.1-0.4-0.2-0.8-0.2-1.3C184.1,226.4,184.1,226.2,184.1,226z M187.7,225.8v-0.9h1.6c0.1,0,0.6,0.1,0.6,0.5c0,0.3-0.4,0.4-0.7,0.4
		H187.7L187.7,225.8z M193.4,226.5c0,0.1,0,0.2,0,0.3h-0.5c0,0-0.1,0-0.1,0.1v0.2c0,0.5-0.3,0.6-0.5,0.7c-0.2,0-0.5-0.1-0.5-0.3
		c-0.1-0.8-0.4-1-0.8-1.3c0.5-0.3,1-0.7,1-1.3s-0.4-1-0.7-1.2c-0.4-0.3-0.9-0.3-1-0.3h-5c0.7-0.8,1.6-1.3,2.6-1.5l0.6,0.6
		c0.1,0.1,0.4,0.1,0.5,0l0.7-0.6c1.4,0.3,2.5,1.1,3.2,2.3l-0.4,1c-0.1,0.2,0,0.4,0.2,0.5l0.9,0.4
		C193.4,226.2,193.4,226.4,193.4,226.5L193.4,226.5z M188.5,221.4c0.2-0.1,0.4-0.1,0.5,0c0.1,0.2,0.1,0.4,0,0.5
		c-0.2,0.1-0.4,0.1-0.5,0C188.3,221.8,188.3,221.6,188.5,221.4z M192.9,225c0.1-0.2,0.3-0.3,0.5-0.2s0.3,0.3,0.2,0.5
		s-0.3,0.3-0.5,0.2S192.8,225.2,192.9,225z"/>
	<g>
		<path class="st8" d="M139.3,54.7l4.1-6.2l-4.1-6.2h3.1l4.1,6.2l-4.1,6.2"/>
		<path class="st8" d="M153.4,51l-1.4-2h4.8v2"/>
		<path class="st8" d="M151.3,47.9l-1.4-2.1h6.9v2.1"/>
	</g>
	<g>
		<path class="st9" d="M143.4,54.7l4.1-6.2l-4.1-6.2h3.1l8.3,12.4h-3.1l-2.6-3.9l-2.6,3.9"/>
	</g>
	<g>
		<path class="st8" d="M85.7,228l4.1-6.2l-4.1-6.2h3.1l4.1,6.2l-4.1,6.2"/>
		<path class="st8" d="M99.8,224.4l-1.4-2.1h4.8v2.1"/>
		<path class="st8" d="M97.8,221.3l-1.4-2.1h6.9v2.1"/>
	</g>
	<g>
		<path class="st9" d="M89.8,228l4.1-6.2l-4.1-6.2h3.1l8.3,12.4h-3.1l-2.6-3.9l-2.6,3.9"/>
	</g>
	<path id="path3_2_" class="st4" d="M158.7,133.8l-0.5-0.3c0-0.1,0-0.1,0-0.2l0.5-0.4c0,0,0.1-0.1,0.1-0.2c0-0.1-0.1-0.1-0.1-0.1
		l-0.6-0.2c0-0.1,0-0.1,0-0.2l0.4-0.5c0-0.1,0-0.1,0-0.2c0-0.1-0.1-0.1-0.1-0.1l-0.6-0.1c0,0,0-0.1-0.1-0.1l0.3-0.6
		c0-0.1,0-0.1,0-0.2c0-0.1-0.1-0.1-0.2-0.1h-0.6l-0.1-0.1l0.1-0.6c0-0.1,0-0.1,0-0.2c0,0-0.1-0.1-0.2,0l-0.6,0.1l-0.1-0.1v-0.6
		c0-0.1,0-0.1-0.1-0.2c-0.1,0-0.1,0-0.2,0l-0.6,0.3l-0.1-0.1l-0.1-0.6c0-0.1-0.1-0.1-0.1-0.1c-0.1,0-0.1,0-0.2,0l-0.5,0.4
		c-0.1,0-0.1,0-0.2,0l-0.2-0.6c0-0.1-0.1-0.1-0.1-0.1c-0.1,0-0.1,0-0.2,0.1l-0.4,0.5c-0.1,0-0.1,0-0.2,0l-0.3-0.5
		c0-0.1-0.1-0.1-0.2-0.1s-0.1,0-0.2,0.1l-0.3,0.5c-0.1,0-0.1,0-0.2,0l-0.4-0.5c0,0-0.1-0.1-0.2-0.1c-0.1,0-0.1,0.1-0.1,0.1l-0.2,0.6
		c-0.1,0-0.1,0-0.2,0l-0.5-0.4c-0.1,0-0.1,0-0.2,0c-0.1,0-0.1,0.1-0.1,0.1l-0.1,0.6c0,0-0.1,0-0.1,0.1l-0.6-0.3c-0.1,0-0.1,0-0.2,0
		c-0.1,0-0.1,0.1-0.1,0.2v0.6l-0.1,0.1l-0.6-0.1c-0.1,0-0.1,0-0.2,0c0,0-0.1,0.1,0,0.2l0.1,0.6l-0.1,0.1h-0.6c-0.1,0-0.1,0-0.2,0.1
		c0,0.1,0,0.1,0,0.2l0.3,0.6l-0.1,0.1l-0.6,0.1c-0.1,0-0.1,0.1-0.1,0.1c0,0.1,0,0.1,0,0.2l0.4,0.5c0,0.1,0,0.1,0,0.2l-0.6,0.2
		c-0.1,0-0.1,0.1-0.1,0.1c0,0.1,0,0.1,0.1,0.2l0.5,0.4c0,0.1,0,0.1,0,0.2l-0.5,0.3c-0.1,0-0.1,0.1-0.1,0.2s0,0.1,0.1,0.2l0.5,0.3
		c0,0.1,0,0.1,0,0.2l-0.5,0.4c0,0-0.1,0.1-0.1,0.2c0,0.1,0.1,0.1,0.1,0.1l0.6,0.2c0,0.1,0,0.1,0,0.2l-0.4,0.5c0,0.1,0,0.1,0,0.2
		c0,0.1,0.1,0.1,0.1,0.1l0.6,0.1c0,0,0,0.1,0.1,0.1l-0.3,0.6c0,0.1,0,0.1,0,0.2c0,0.1,0.1,0.1,0.2,0.1h0.6l0.1,0.1l-0.1,0.6
		c0,0.1,0,0.1,0,0.2c0,0,0.1,0.1,0.2,0l0.6-0.1l0.1,0.1v0.6c0,0.1,0,0.1,0.1,0.2c0.1,0,0.1,0,0.2,0l0.6-0.3l0.1,0.1l0.1,0.6
		c0,0.1,0.1,0.1,0.1,0.1c0.1,0,0.1,0,0.2,0l0.5-0.4c0.1,0,0.1,0,0.2,0l0.2,0.6c0,0.1,0.1,0.1,0.1,0.1c0.1,0,0.1,0,0.2-0.1l0.4-0.5
		c0.1,0,0.1,0,0.2,0l0.3,0.5c0,0.1,0.1,0.1,0.2,0.1s0.1,0,0.2-0.1l0.3-0.5c0.1,0,0.1,0,0.2,0l0.4,0.5c0,0,0.1,0.1,0.2,0.1
		c0.1,0,0.1-0.1,0.1-0.1l0.2-0.6c0.1,0,0.1,0,0.2,0l0.5,0.4c0.1,0,0.1,0,0.2,0c0.1,0,0.1-0.1,0.1-0.1l0.1-0.6c0,0,0.1,0,0.1-0.1
		l0.6,0.3c0.1,0,0.1,0,0.2,0c0.1,0,0.1-0.1,0.1-0.2v-0.6l0.1-0.1l0.6,0.1c0.1,0,0.1,0,0.2,0c0,0,0.1-0.1,0-0.2l-0.1-0.6l0.1-0.1h0.6
		c0.1,0,0.1,0,0.2-0.1c0-0.1,0-0.1,0-0.2l-0.3-0.6l0.1-0.1l0.6-0.1c0.1,0,0.1-0.1,0.1-0.1c0-0.1,0-0.1,0-0.2l-0.4-0.5
		c0-0.1,0-0.1,0-0.2l0.6-0.2c0.1,0,0.1-0.1,0.1-0.1c0-0.1,0-0.1-0.1-0.2l-0.5-0.4c0-0.1,0-0.1,0-0.2l0.5-0.3c0.1,0,0.1-0.1,0.1-0.2
		S158.8,133.8,158.7,133.8L158.7,133.8z M155.1,138.3c-0.2,0-0.3-0.2-0.3-0.5c0-0.2,0.2-0.3,0.5-0.3c0.2,0,0.3,0.2,0.3,0.5
		C155.5,138.2,155.3,138.3,155.1,138.3z M154.9,137c-0.2,0-0.4,0.1-0.4,0.3l-0.2,0.9c-0.6,0.3-1.2,0.4-1.9,0.4s-1.4-0.2-2-0.4
		l-0.2-0.9c0-0.2-0.2-0.3-0.4-0.3l-0.8,0.2c-0.1-0.2-0.3-0.3-0.4-0.5h3.8h0.1v-1.4c0,0,0,0-0.1,0h-1.1v-0.9h1.2c0.1,0,0.6,0,0.7,0.6
		c0,0.2,0.2,0.8,0.2,1c0.1,0.2,0.4,0.7,0.7,0.7h1.9c0,0,0,0,0.1,0c-0.1,0.2-0.3,0.4-0.4,0.5L154.9,137L154.9,137z M149.6,138.3
		c-0.2,0-0.4-0.1-0.5-0.3c0-0.2,0.1-0.4,0.3-0.5c0.2,0,0.4,0.1,0.5,0.3C150,138,149.8,138.2,149.6,138.3z M148.2,132.4
		c0.1,0.2,0,0.4-0.2,0.5s-0.4,0-0.5-0.2s0-0.4,0.2-0.5C147.9,132.1,148.1,132.2,148.2,132.4z M147.7,133.4l0.8-0.4
		c0.2-0.1,0.3-0.3,0.2-0.5l-0.2-0.4h0.7v3h-1.3c-0.1-0.4-0.2-0.8-0.2-1.3C147.7,133.8,147.7,133.6,147.7,133.4z M151.3,133.1v-0.9
		h1.6c0.1,0,0.6,0.1,0.6,0.5c0,0.3-0.4,0.4-0.7,0.4H151.3L151.3,133.1z M157.1,133.9c0,0.1,0,0.2,0,0.3h-0.5c0,0-0.1,0-0.1,0.1v0.2
		c0,0.5-0.3,0.6-0.5,0.7c-0.2,0-0.5-0.1-0.5-0.3c-0.1-0.8-0.4-1-0.8-1.3c0.5-0.3,1-0.7,1-1.3s-0.4-1-0.7-1.2c-0.4-0.3-0.9-0.3-1-0.3
		h-5c0.7-0.8,1.6-1.3,2.6-1.5l0.6,0.6c0.1,0.1,0.4,0.1,0.5,0l0.7-0.6c1.4,0.3,2.5,1.1,3.2,2.3l-0.4,1c-0.1,0.2,0,0.4,0.2,0.5
		l0.9,0.4C157.1,133.6,157.1,133.8,157.1,133.9L157.1,133.9z M152.1,128.8c0.2-0.1,0.4-0.1,0.5,0c0.1,0.2,0.1,0.4,0,0.5
		c-0.2,0.1-0.4,0.1-0.5,0S152,128.9,152.1,128.8z M156.6,132.4c0.1-0.2,0.3-0.3,0.5-0.2s0.3,0.3,0.2,0.5s-0.3,0.3-0.5,0.2
		C156.6,132.8,156.5,132.6,156.6,132.4z"/>
</g>
</svg>
