<?xml version="1.0" encoding="utf-8"?><svg id="layout_graphic_action_script" image-rendering="auto" baseProfile="basic" version="1.1" x="0px" y="0px" width="960" height="640" xmlns="http://www.w3.org/2000/svg" xmlns:xlink="http://www.w3.org/1999/xlink"><defs><g id="Symbol-7" overflow="visible"><path fill="#C04A28" stroke="none" d="M49.15 24.6Q49.15 14.4 41.95 7.2 34.75 0 24.6 0 14.4 0 7.2 7.2 0 14.4 0 24.6 0 34.75 7.2 41.95 14.4 49.15 24.6 49.15 34.75 49.15 41.95 41.95 49.15 34.75 49.15 24.6Z"/><path id="Layer6_0_1_STROKES" stroke="#E3B648" stroke-width="2" stroke-linejoin="miter" stroke-linecap="butt" stroke-miterlimit="10" fill="none" d="M49.15 24.6Q49.15 14.4 41.95 7.2 34.75 0 24.6 0 14.4 0 7.2 7.2 0 14.4 0 24.6 0 34.75 7.2 41.95 14.4 49.15 24.6 49.15 34.75 49.15 41.95 41.95 49.15 34.75 49.15 24.6Z"/></g></defs><g id="Scene-1r1" overflow="visible"><g id="Symbol-8" transform="translate(40.55 12.55)"><animateTransform repeatCount="indefinite" attributeName="transform" additive="replace" type="translate" dur="6.125s" keyTimes="0;.007;.014;.02;.027;.034;.041;.048;.054;.061;.068;.075;.082;.088;.095;.102;.109;.116;.122;.129;.136;.143;.15;.156;.163;.17;.177;.184;.19;.197;.204;.211;.218;.224;.231;.238;.245;.252;.259;.265;.272;.279;.286;.293;.299;.306;.313;.32;.327;.333;.34;.347;.354;.361;.367;.374;.381;.388;.395;.401;.408;.415;.422;.429;.435;.442;.449;.456;.463;.469;.476;.483;.49;.497;.503;.51;.517;.524;.531;.537;.544;.551;.558;.565;.571;.578;.585;.592;.599;.605;.612;.619;.626;.633;.639;.646;.653;.66;.667;.673;.68;.687;.694;.701;.707;.714;.721;.728;.735;.741;.748;.755;.762;.769;.776;.782;.789;.796;.803;.81;.816;.823;.83;.837;.844;.85;.857;.864;.871;.878;.884;.891;.898;.905;.912;.918;.925;.932;.939;.946;.952;.959;.966;1" values="40.55,12.55;45.65,28.55;50.8,44.3;55.95,59.7;61.05,74.8;66.15,89.6;71.25,104.1;76.35,118.25;81.4,132.1;86.5,145.7;91.55,158.9;96.6,171.85;101.65,184.45;106.65,196.75;111.7,208.75;116.7,220.45;121.7,231.85;126.7,242.9;131.65,253.65;136.65,264.15;141.6,274.25;146.55,284.1;151.5,293.6;156.45,302.85;161.35,311.75;166.3,320.35;171.2,328.65;176.1,336.6;181,344.3;185.85,351.65;190.75,358.7;195.6,365.45;200.45,371.85;205.3,378;210.15,383.8;214.95,389.3;219.75,394.5;224.6,399.4;229.4,404;234.2,408.25;238.95,412.2;243.75,415.85;248.5,419.2;253.25,422.25;258,424.95;262.75,427.35;267.5,429.5;267.5,429.5;273.2,414.95;279.15,400.85;285.3,387.25;291.7,374.1;298.3,361.4;305.1,349.2;312.1,337.45;319.35,326.2;326.8,315.4;334.5,305.05;342.35,295.2;350.45,285.8;358.75,276.85;367.3,268.4;376.05,260.4;385,252.9;394.15,245.8;403.55,239.25;413.15,233.1;422.95,227.45;433,222.25;443.25,217.55;453.7,213.3;464.4,209.5;475.25,206.2;486.35,203.35;497.7,200.95;509.25,199.05;521,197.6;532.95,196.6;545.15,196.1;557.55,196.05;570.15,196.5;583,197.4;596,198.75;609.3,200.55;622.75,202.85;636.45,205.6;650.35,208.85;664.5,212.55;678.85,216.7;693.4,221.35;708.2,226.45;723.2,232.05;738.4,238.1;753.8,244.6;769.5,251.55;769.5,251.55;770,241.85;769.75,232.35;768.85,223.05;767.2,213.95;764.8,205.1;761.65,196.4;757.8,187.9;753.2,179.6;747.85,171.55;741.8,163.65;735.05,155.95;727.5,148.5;719.3,141.2;710.3,134.15;700.6,127.3;690.2,120.6;679.05,114.15;667.15,107.9;654.55,101.85;641.25,96;627.15,90.3;612.4,84.85;596.85,79.6;580.6,74.55;563.65,69.7;545.95,65.05;527.5,60.6;508.35,56.4;488.45,52.35;467.85,48.5;446.5,44.85;424.4,41.45;401.6,38.2;378.05,35.15;353.8,32.35;328.8,29.7;303.05,27.25;276.6,25.05;249.4,23;221.45,21.2;192.8,19.6;163.4,18.15;133.3,16.95;102.45,15.95;70.85,15.15;38.5,14.5;40.55,12.55;40.55,12.55" fill="freeze"/><g transform="translate(-40.55 -12.55)" id="Layer7_0_FILL"><path fill="#605FA0" stroke="none" d="M51.6 12.85Q53.8 10.6 53.8 7.5 53.8 4.4 51.6 2.2 49.4 0 46.25 0 43.15 0 40.95 2.2 38.75 4.4 38.75 7.5 38.75 10.6 40.95 12.85 43.15 15.05 46.25 15.05 49.4 15.05 51.6 12.85Z"/><path fill="#605FA0" stroke="none" d="M51.6 31.35Q53.8 29.1 53.8 26 53.8 22.9 51.6 20.7 49.4 18.5 46.25 18.5 43.15 18.5 40.95 20.7 38.75 22.9 38.75 26 38.75 29.1 40.95 31.35 43.15 33.55 46.25 33.55 49.4 33.55 51.6 31.35Z"/><path fill="#605FA0" stroke="none" d="M32.2 32.2Q34.4 30 34.4 26.9 34.4 23.8 32.2 21.55 30 19.35 26.9 19.35 23.75 19.35 21.55 21.55 19.35 23.8 19.35 26.9 19.35 30 21.55 32.2 23.75 34.4 26.9 34.4 30 34.4 32.2 32.2Z"/><path fill="#605FA0" stroke="none" d="M12.85 32.2Q15.05 30 15.05 26.9 15.05 23.8 12.85 21.55 10.65 19.35 7.55 19.35 4.4 19.35 2.2 21.55 0 23.8 0 26.9 0 30 2.2 32.2 4.4 34.4 7.55 34.4 10.65 34.4 12.85 32.2Z"/><path fill="#E3B648" stroke="none" d="M32.2 12.85Q34.4 10.6 34.4 7.5 34.4 4.4 32.2 2.2 30 0 26.9 0 23.75 0 21.55 2.2 19.35 4.4 19.35 7.5 19.35 10.6 21.55 12.85 23.75 15.05 26.9 15.05 30 15.05 32.2 12.85Z"/></g></g><g display="none"><use xlink:href="#Symbol-7" transform="translate(790.25 526.95)"><animateTransform repeatCount="indefinite" attributeName="transform" additive="replace" type="translate" dur="6.125s" keyTimes="0;.483;.49;.497;.503;.51;.517;.524;.531;.537;.544;.551;.558;.565;.571;.578;.585;.592;.599;.605;.612;.619;.626;.633;.639;.646;.653;.66;.667;.673;.68;.687;.694;.701;.707;.714;.721;.728;.735;.741;.748;.755;.762;.769;.776;.782;.789;.796;.803;.81;.816;.823;.83;.837;.844;.85;.857;.864;.871;.878;.884;.891;.898;.905;.912;.918;.925;.932;.939;.946;.952;.959;.966;1" values="790.25,526.95;790.25,526.95;798.45,526.05;806.2,524.95;813.4,523.7;820.05,522.2;826.2,520.55;831.85,518.7;836.95,516.65;841.5,514.4;845.55,511.95;849.1,509.35;852.1,506.55;854.55,503.55;856.5,500.35;857.95,496.95;858.85,493.4;859.2,489.65;859.05,485.7;858.4,481.55;857.2,477.2;855.45,472.7;853.2,467.95;850.45,463.05;847.15,457.95;843.35,452.7;839,447.2;834.15,441.55;828.75,435.7;822.85,429.65;816.4,423.45;809.45,417;801.95,410.4;793.95,403.6;785.5,396.6;776.45,389.4;766.85,382.05;756.75,374.5;746.15,366.75;735,358.8;723.3,350.65;711.1,342.35;698.4,333.8;685.15,325.1;671.4,316.2;657.1,307.15;642.3,297.85;626.95,288.4;611.1,278.75;594.7,268.9;577.8,258.85;560.35,248.65;542.4,238.2;523.9,227.6;504.9,216.8;485.35,205.8;465.3,194.65;444.7,183.25;423.6,171.7;401.95,159.95;379.8,148;357.1,135.85;333.9,123.55;310.15,111;285.9,98.3;261.1,85.4;235.8,72.3;209.95,59.05;183.55,45.55;156.65,31.9;129.25,18.05;101.25,3.95;105.3,5;105.3,5" fill="freeze"/></use><animate attributeName="display" fill="freeze" repeatCount="indefinite" dur="6.125s" keyTimes="0;.483;1" values="none;inline;inline"/></g><g><g id="Symbol-6" transform="translate(105.3 5)"><animateTransform repeatCount="indefinite" attributeName="transform" additive="replace" type="translate" dur="6.125s" keyTimes="0;.007;.014;.02;.027;.034;.041;.048;.054;.061;.068;.075;.082;.088;.095;.102;.109;.116;.122;.129;.136;.143;.15;.156;.163;.17;.177;.184;.19;.197;.204;.211;.218;.224;.231;.238;.245;.252;.259;.265;.272;.279;.286;.293;.299;.306;.313;.32;.327;.333;.34;.347;.354;.361;.367;.374;.381;.388;.395;.401;.408;.415;.422;.429;.435;.442;.449;.456;.463;.469;.476;1" values="105.3,5;106.9,19.2;109,33.35;111.3,47.5;113.8,61.6;116.35,75.7;119.05,89.75;121.9,103.8;124.8,117.8;127.85,131.8;131,145.75;134.3,159.7;137.75,173.6;141.3,187.45;145,201.3;148.9,215.1;152.95,228.8;157.25,242.5;161.85,256.05;166.7,269.5;171.95,282.85;177.65,296;184,308.85;191.3,321.15;199.95,332.55;209.15,343.5;218.75,354.1;228.65,364.5;238.8,374.6;249.2,384.45;259.85,394;270.75,403.3;281.9,412.25;293.4,420.85;305.15,429;317.25,436.65;329.75,443.7;342.6,449.95;355.9,455.2;369.65,459.2;383.45,463;397.15,467.25;410.75,471.75;424.25,476.45;437.7,481.35;451.1,486.45;464.45,491.7;477.7,497.1;490.85,502.7;503.95,508.55;516.95,514.55;529.8,520.85;542.5,527.45;555.05,534.35;567.35,541.7;579.9,548.55;593.45,553.25;607.4,556.25;621.65,557.95;635.95,558.55;650.25,558.35;664.55,557.4;678.8,555.9;692.95,553.9;707.1,551.4;721.1,548.5;735,545.2;748.85,541.45;762.55,537.3;776.1,532.65;789.25,526.95;789.25,526.95" fill="freeze"/><use xlink:href="#Symbol-7"/></g><animate attributeName="display" fill="freeze" repeatCount="indefinite" dur="6.125s" keyTimes="0;.483;1" values="inline;none;none"/></g><g id="Symbol-5" transform="translate(164.85 7.25)"><animateTransform repeatCount="indefinite" attributeName="transform" additive="replace" type="translate" dur="6.125s" keyTimes="0;.007;.014;.02;.027;.034;.041;.048;.054;.061;.068;.075;.082;.088;.095;.102;.109;.116;.122;.129;.136;.143;.15;.156;.163;.17;.177;.184;.19;.197;.204;.211;.218;.224;.231;.238;.245;.252;.259;.265;.272;.279;.286;.293;.299;.306;.313;.32;.327;.333;.34;.347;.354;.361;.367;.374;.381;.388;.395;.401;.408;.415;.422;.429;.435;.442;.449;.456;.463;.469;.476;.483;.49;.497;.503;.51;.517;.524;.531;.537;.544;.551;.558;.565;.571;.578;.585;.592;.599;.605;.612;.619;.626;.633;.639;.646;.653;.66;.667;.673;.68;.687;.694;.701;.707;.714;.721;.728;.735;.741;.748;.755;.762;.769;.776;.782;.789;.796;.803;.81;.816;.823;.83;.837;.844;.85;.857;.864;.871;.878;.884;.891;.898;.905;.912;.918;.925;.932;.939;.946;.952;.959;.966;1" values="164.85,7.25;191,8.05;216.65,8.95;241.75,9.9;266.25,11;290.25,12.15;313.65,13.4;336.5,14.75;358.8,16.2;380.55,17.7;401.75,19.3;422.4,21;442.45,22.8;462,24.65;480.95,26.6;499.4,28.65;517.25,30.8;534.55,33;551.3,35.3;567.5,37.7;583.1,40.2;598.2,42.8;612.75,45.45;626.7,48.2;640.15,51.05;653,53.95;665.3,57;677.1,60.1;688.3,63.3;698.95,66.55;709.05,69.95;718.6,73.4;727.55,76.95;736,80.6;743.9,84.3;751.25,88.1;758,92;764.25,96;769.9,100.05;775,104.25;779.6,108.5;783.6,112.85;787.05,117.25;789.95,121.8;792.3,126.4;794.1,131.1;795.3,135.85;796,140.75;796.15,145.7;795.7,150.75;794.75,155.85;793.2,161.1;791.15,166.4;788.5,171.8;785.3,177.3;781.55,182.9;777.25,188.55;772.4,194.3;767,200.15;761.05,206.1;754.5,212.1;747.45,218.2;739.8,224.4;731.65,230.7;722.9,237.1;713.6,243.55;703.75,250.1;693.35,256.75;682.35,263.5;670.85,270.3;658.8,277.25;639.8,289.25;646.05,297.25;651.95,304.95;657.45,312.3;662.6,319.25;667.35,325.9;671.75,332.2;675.75,338.15;679.35,343.7;682.6,348.95;685.5,353.85;688,358.4;690.1,362.6;691.85,366.45;693.2,369.95;694.2,373.1;694.8,375.9;695.05,378.35;694.9,380.45;694.4,382.2;693.5,383.6;692.2,384.65;690.55,385.35;688.5,385.7;686.1,385.7;683.3,385.4;680.1,384.7;676.55,383.65;672.6,382.25;668.3,380.5;663.6,378.45;658.5,376;653.05,373.2;647.2,370.05;641,366.6;634.45,362.75;627.45,358.55;620.05,354;612.3,349.15;604.2,343.9;595.65,338.3;586.8,332.35;577.5,326.1;567.85,319.45;557.8,312.45;547.35,305.1;536.55,297.4;525.35,289.35;513.75,281.05;501.75,272.3;489.4,263.2;476.65,253.75;463.55,243.95;450,233.8;436.1,223.3;421.85,212.45;407.15,201.2;392.1,189.65;376.65,177.75;360.8,165.5;344.6,152.85;327.95,139.9;310.95,126.55;293.55,112.9;275.8,98.85;257.6,84.45;239.05,69.75;220.1,54.65;200.75,39.2;181,23.4;160.85,7.2;164.85,7.25;164.85,7.25" fill="freeze"/><g transform="translate(-164.85 -7.25)" id="Layer2_0_FILL"><path fill="#FFF" stroke="none" d="M43.4 43.4Q46.9 39.85 46.9 34.9L46.9 11.95Q46.9 7 43.4 3.5 39.85 0 34.9 0L12 0Q7.05 0 3.55 3.5 0 7 0 11.95L0 34.9Q0 39.85 3.55 43.4 7.05 46.9 12 46.9L34.9 46.9Q39.85 46.9 43.4 43.4Z"/><path id="Layer2_0_1_STROKES" stroke="#000" stroke-width="1" stroke-linejoin="miter" stroke-linecap="butt" stroke-miterlimit="10" fill="none" d="M34.9 46.9L12 46.9Q7.05 46.9 3.55 43.4 0 39.85 0 34.9L0 11.95Q0 7 3.55 3.5 7.05 0 12 0L34.9 0Q39.85 0 43.4 3.5 46.9 7 46.9 11.95L46.9 34.9Q46.9 39.85 43.4 43.4 39.85 46.9 34.9 46.9Z"/><path fill="#605FA0" stroke="none" d="M8.95 20.65L22.35 20.65 22.35 7.25 8.95 7.25 8.95 20.65Z"/><path fill="#222936" stroke="none" d="M8.95 39.95L22.35 39.95 22.35 26.55 8.95 26.55 8.95 39.95Z"/><path fill="#E3B648" stroke="none" d="M41.35 39.95L41.35 26.55 27.95 26.55 27.95 39.95 41.35 39.95Z"/></g></g><g id="Symbol-4" transform="translate(0 12.55)"><animateTransform repeatCount="indefinite" attributeName="transform" additive="replace" type="translate" dur="6.125s" keyTimes="0;.007;.014;.02;.027;.034;.041;.048;.054;.061;.068;.075;.082;.088;.095;.102;.109;.116;.122;.129;.136;.143;.15;.156;.163;.17;.177;.184;.19;.197;.204;.211;.218;.224;.231;.238;.245;.252;.259;.265;.272;.279;.286;.293;.299;.306;.313;.32;.327;.333;.34;.347;.354;.361;.367;.374;.381;.388;.395;.401;.408;.415;.422;.429;.435;.442;.449;.456;.463;.469;.476;.483;.49;.497;.503;.51;.517;.524;.531;.537;.544;.551;.558;.565;.571;.578;.585;.592;.599;.605;.612;.619;.626;.633;.639;.646;.653;.66;.667;.673;.68;.687;.694;.701;.707;.714;.721;.728;.735;.741;.748;.755;.762;.769;.776;.782;.789;.796;.803;.81;.816;.823;.83;.837;.844;.85;.857;.864;.871;.878;.884;.891;.898;.905;.912;.918;.925;.932;.939;.946;.952;.959;.966;.986;.993;1" values="0,12.55;3.5,34.8;7,56.65;10.55,78;14.15,98.85;17.75,119.25;21.35,139.2;25,158.6;28.65,177.6;32.35,196.05;36.1,214.1;39.8,231.6;43.55,248.65;47.35,265.25;51.15,281.35;55,297;58.85,312.15;62.7,326.85;66.6,341.05;70.5,354.75;74.45,368;78.4,380.8;82.4,393.1;86.4,404.95;90.45,416.3;94.5,427.15;98.6,437.55;102.7,447.5;106.8,456.95;110.95,465.95;115.15,474.45;119.35,482.45;123.55,490;127.8,497.1;132.05,503.7;136.35,509.85;140.65,515.5;144.95,520.7;149.3,525.4;153.7,529.65;158.1,533.4;162.55,536.7;166.95,539.5;171.45,541.85;175.95,543.7;180.45,545.1;185,546;189.55,546.45;194.15,546.4;198.75,545.9;203.4,544.95;208.05,543.45;212.7,541.55;217.4,539.15;222.15,536.25;226.9,532.9;231.65,529.05;236.45,524.75;241.3,519.95;246.1,514.7;251,509;255.85,502.75;260.8,496.1;265.7,488.95;270.7,481.3;275.65,473.2;280.65,464.6;285.7,455.55;290.75,446;295.8,435.95;300.95,425.5;300.95,425.5;305.9,426.95;310.6,428.25;315.05,429.3;319.25,430.15;323.2,430.8;326.85,431.25;330.25,431.45;333.35,431.5;336.25,431.3;338.85,430.9;341.2,430.25;343.25,429.45;345.05,428.4;346.6,427.15;347.9,425.65;348.95,424.05;349.7,422.15;350.2,420.1;350.4,417.8;350.4,415.25;350.1,412.55;349.55,409.6;348.75,406.5;347.65,403.15;346.3,399.6;344.7,395.8;342.85,391.85;340.7,387.65;338.3,383.25;335.65,378.65;332.7,373.85;329.55,368.8;326.1,363.6;322.35,358.15;318.4,352.5;314.15,346.65;309.65,340.6;304.9,334.3;299.9,327.85;294.65,321.15;289.1,314.25;283.25,307.15;277.2,299.85;270.85,292.3;264.25,284.55;257.35,276.65;250.25,268.5;242.85,260.15;235.2,251.55;227.25,242.8;219.1,233.8;210.65,224.65;201.9,215.25;192.95,205.65;183.7,195.8;174.2,185.8;164.45,175.6;154.4,165.15;144.1,154.5;133.55,143.65;122.75,132.6;111.65,121.35;100.3,109.85;88.7,98.15;76.8,86.3;64.65,74.2;52.25,61.9;39.6,49.35;26.65,36.65;13.45,23.7;-.05,10.55;-.05,10.55;0,11.55;0,11.55" fill="freeze"/><path fill="#C04A28" stroke="none" d="M0 15.05L30.75 15.05 30.75 0 0 0 0 15.05Z"/></g></g></svg>