<?xml version="1.0" encoding="utf-8"?>
<!-- Generator: Adobe Illustrator 23.0.4, SVG Export Plug-In . SVG Version: 6.00 Build 0)  -->
<svg version="1.0" id="Layer_1" xmlns="http://www.w3.org/2000/svg" xmlns:xlink="http://www.w3.org/1999/xlink" x="0px" y="0px"
	 viewBox="0 0 404 155" style="enable-background:new 0 0 404 155;" xml:space="preserve">
<style type="text/css">
	.st0{fill:none;stroke:#000000;stroke-width:2;stroke-miterlimit:10;}
	.st1{fill:#DD4921;}
	.st2{fill:none;stroke:#F3B73B;stroke-width:2;stroke-miterlimit:10;}
	.st3{fill:none;stroke:#FBAE17;stroke-width:2;stroke-miterlimit:10;}
	.st4{font-family:'IBMPlexMono-Medium';}
	.st5{font-size:12px;}
	.st6{fill:none;stroke:#2983A6;stroke-width:1.25;stroke-miterlimit:10;}
	.st7{fill:#605FA4;}
	.st8{fill:none;}
</style>
<g>
	<g>
		<line class="st0" x1="205.4" y1="59" x2="159" y2="59"/>
		<g>
			<polygon points="211,59 203,55.7 204.9,59 203,62.3 			"/>
		</g>
	</g>
</g>
<g>
	<g>
		<line class="st0" x1="159" y1="43" x2="205.5" y2="30.5"/>
		<g>
			<polygon points="211,29 204.2,34.2 205.1,30.6 202.5,27.9 			"/>
		</g>
	</g>
</g>
<g>
	<g>
		<line class="st0" x1="205.4" y1="99" x2="159" y2="99"/>
		<g>
			<polygon points="211,99 203,95.7 204.9,99 203,102.3 			"/>
		</g>
	</g>
</g>
<g>
	<g>
		<line class="st0" x1="205.4" y1="92" x2="159" y2="92"/>
		<g>
			<polygon points="211,92 203,88.7 204.9,92 203,95.3 			"/>
		</g>
	</g>
</g>
<g>
	<g>
		<line class="st0" x1="159" y1="87" x2="206.6" y2="48.5"/>
		<g>
			<polygon points="211,45 206.9,52.5 206.3,48.8 202.8,47.5 			"/>
		</g>
	</g>
</g>
<g>
	<g>
		<line class="st0" x1="207.3" y1="78.7" x2="159" y2="22"/>
		<g>
			<polygon points="211,83 208.3,74.8 207.1,78.4 203.4,79.1 			"/>
		</g>
	</g>
</g>
<g>
	<path class="st1" d="M158.8,107.8c0,1.7-1.3,3-3,3H64.5c-1.7,0-3-1.3-3-3V16.5c0-1.6,1.3-3,3-3h91.3c1.7,0,3,1.4,3,3V107.8z"/>
	<path class="st2" d="M158.8,107.8c0,1.7-1.3,3-3,3H64.5c-1.7,0-3-1.3-3-3V16.5c0-1.6,1.3-3,3-3h91.3c1.7,0,3,1.4,3,3V107.8z"/>
</g>
<g>
	<path class="st1" d="M309,107.8c0,1.7-1.4,3-3,3h-91.3c-1.7,0-3-1.3-3-3V16.5c0-1.6,1.3-3,3-3H306c1.6,0,3,1.4,3,3V107.8z"/>
	<path class="st3" d="M309,107.8c0,1.7-1.4,3-3,3h-91.3c-1.7,0-3-1.3-3-3V16.5c0-1.6,1.3-3,3-3H306c1.6,0,3,1.4,3,3V107.8z"/>
</g>
<text transform="matrix(1 0 0 1 78.4341 53.9443)"><tspan x="0" y="0" class="st4 st5">GESTURAL </tspan><tspan x="-3.6" y="14.4" class="st4 st5">CONTROLLER</tspan></text>
<text transform="matrix(1 0 0 1 242.834 53.9443)"><tspan x="0" y="0" class="st4 st5">SOUND</tspan><tspan x="-18" y="14.4" class="st4 st5">PRODUCTION</tspan></text>
<g>
	<g>
		<line class="st0" x1="55.4" y1="18" x2="36" y2="18"/>
		<g>
			<polygon points="61,18 53,14.7 54.9,18 53,21.3 			"/>
		</g>
	</g>
</g>
<g>
	<g>
		<line class="st0" x1="55.4" y1="25" x2="36" y2="25"/>
		<g>
			<polygon points="61,25 53,21.7 54.9,25 53,28.3 			"/>
		</g>
	</g>
</g>
<g>
	<g>
		<line class="st0" x1="55.4" y1="32" x2="36" y2="32"/>
		<g>
			<polygon points="61,32 53,28.7 54.9,32 53,35.3 			"/>
		</g>
	</g>
</g>
<g>
	<g>
		<line class="st0" x1="55.4" y1="39" x2="36" y2="39"/>
		<g>
			<polygon points="61,39 53,35.7 54.9,39 53,42.3 			"/>
		</g>
	</g>
</g>
<g>
	<g>
		<line class="st0" x1="23.6" y1="102" x2="61" y2="102"/>
		<g>
			<polygon points="18,102 26,105.2 24.1,102 26,98.7 			"/>
		</g>
	</g>
</g>
<g>
	<g>
		<line class="st0" x1="333.4" y1="83" x2="310" y2="83"/>
		<g>
			<polygon points="339,83 331,79.7 332.9,83 331,86.3 			"/>
		</g>
	</g>
</g>
<g>
	<g>
		<path class="st0" d="M322,83v44c0,1.1-0.9,2-2,2H23.6"/>
		<g>
			<polygon points="18,129 26,125.7 24.1,129 26,132.3 			"/>
		</g>
	</g>
</g>
<text transform="matrix(1 0 0 1 160.458 11.6118)" class="st4 st5">Mapping</text>
<g>
	<path class="st6" d="M338,67.8c4,0,4,22.1,8,22.1c4,0,4-22.1,8-22.1c4,0,4,22.1,8,22.1c4,0,4-22.1,8-22.1c4,0,4,22.1,8,22.1
		c4,0,4-22.1,8-22.1c4,0,4,22.1,8,22.1c4,0,4-22.1,8-22.1"/>
	<path class="st6" d="M338,67.8c4,0,4,24,8,24c4,0,4-25.6,8-25.6c4,0,4,24.6,8,24.6c4,0,4-23.8,8-23.8c4,0,4,23.5,8,23.5
		c4,0,4-23.1,8-23.1c4,0,4,22.5,8,22.5c4,0,4-22.1,8-22.1"/>
	<path class="st6" d="M338,67.8c4,0,4,25.9,8,25.9c4,0,4-29.1,8-29.1c4,0,4,27.1,8,27.1c4,0,4-25.6,8-25.6c4,0,4,25,8,25
		c4,0,4-24.1,8-24.1c4,0,4,23,8,23c4,0,4-22.1,8-22.1"/>
	<path class="st6" d="M338,67.8c4,0,4,27.8,8,27.8c4,0,4-32.7,8-32.7c4,0,4,29.6,8,29.6c4,0,4-27.4,8-27.4c4,0,4,26.5,8,26.5
		c4,0,4-25.2,8-25.2c4,0,4,23.4,8,23.4c4,0,4-22.1,8-22.1"/>
	<path class="st6" d="M338,67.8c4,0,4,29.7,8,29.7c4,0,4-36.2,8-36.2c4,0,4,32.1,8,32.1c4,0,4-29.1,8-29.1c4,0,4,28,8,28
		c4,0,4-26.2,8-26.2c4,0,4,23.8,8,23.8c4,0,4-22.1,8-22.1"/>
	<path class="st6" d="M338,67.8c4,0,4,31.6,8,31.6c4,0,4-39.7,8-39.7c4,0,4,34.6,8,34.6c4,0,4-30.9,8-30.9c4,0,4,29.4,8,29.4
		c4,0,4-27.2,8-27.2c4,0,4,24.3,8,24.3c4,0,4-22.1,8-22.1"/>
</g>
<text transform="matrix(1 0 0 1 23.6587 121.6118)" class="st4 st5">Haptic feedback</text>
<text transform="matrix(1 0 0 1 74.459 140.6118)" class="st4 st5">Sonic feedback (music)</text>
<circle class="st7" cx="20" cy="27" r="15"/>
<line class="st8" x1="19" y1="42" x2="18" y2="129"/>
<g>
	<g>
		<line class="st0" x1="18.9" y1="47.6" x2="18" y2="129"/>
		<g>
			<polygon points="19,42 15.7,49.9 18.9,48.1 22.2,50 			"/>
		</g>
	</g>
</g>
<text transform="matrix(1 0 0 1 0.8584 9.6118)" class="st4 st5">Musician</text>
</svg>
