<?xml version="1.0" encoding="utf-8"?>
<!-- Generator: Adobe Illustrator 23.0.4, SVG Export Plug-In . SVG Version: 6.00 Build 0)  -->
<svg version="1.0" xmlns="http://www.w3.org/2000/svg" xmlns:xlink="http://www.w3.org/1999/xlink" x="0px" y="0px"
	 viewBox="0 0 253 72" style="enable-background:new 0 0 253 72;" xml:space="preserve">
<style type="text/css">
	.st0{fill:none;stroke:#000000;stroke-miterlimit:10;}
	.st1{fill:#605FA4;}
	.st2{fill:none;stroke:#605FA4;stroke-width:2;stroke-miterlimit:10;}
	.st3{fill:#D989BC;}
	.st4{fill:none;stroke:#D989BC;stroke-width:2;stroke-miterlimit:10;}
	.st5{fill:#F3B73B;}
	.st6{fill:none;stroke:#F3B73B;stroke-width:2;stroke-miterlimit:10;}
	.st7{fill:#DD4921;stroke:#DD4921;stroke-width:2;stroke-miterlimit:10;}
	.st8{fill:none;stroke:#2983A6;stroke-width:1.25;stroke-miterlimit:10;}
</style>
<g id="Layer_1">
	<path class="st0" d="M0.5,83.9"/>
	<g>
		<path class="st1" d="M25.4,67.3C26.5,67.3,26.5,67.3,25.4,67.3c0,0-6.4,0-23.1,0C19,67.3,25.4,67.3,25.4,67.3c1.1,0,2-0.9,2-2
			l0.7-62c0-1.1,0-1.9,0-1.7S28.1,2.9,28,4c0,0-1.1,13.5-2.7,22C18.6,59.1,3.8,66.4,3.8,66.4c-1,0.5-2,0.9-2.2,0.9s0.5,0,1.6,0H25.4
			z"/>
		<path class="st2" d="M25.4,67.3C26.5,67.3,26.5,67.3,25.4,67.3c0,0-6.4,0-23.1,0C19,67.3,25.4,67.3,25.4,67.3c1.1,0,2-0.9,2-2
			l0.7-62c0-1.1,0-1.9,0-1.7S28.1,2.9,28,4c0,0-1.1,13.5-2.7,22C18.6,59.1,3.8,66.4,3.8,66.4c-1,0.5-2,0.9-2.2,0.9s0.5,0,1.6,0H25.4
			z"/>
	</g>
	<g>
		<path class="st3" d="M30.9,1c0,13.4,12.6,23.1,12.6,23.1c0.9,0.7,1.6,2.1,1.6,3.2v38c0,1.1-0.9,2-2,2H32.3c-1.1,0-2-0.9-2-2
			C30.4,65.3,30.5,45.2,30.9,1c-0.4,44.2-0.4,44.2-0.6,66.3"/>
		<path class="st4" d="M30.9,1c0,13.4,12.6,23.1,12.6,23.1c0.9,0.7,1.6,2.1,1.6,3.2v38c0,1.1-0.9,2-2,2H32.3c-1.1,0-2-0.9-2-2
			C30.4,65.3,30.5,45.2,30.9,1c-0.4,44.2-0.4,44.2-0.6,66.3"/>
	</g>
	<g>
		<path class="st5" d="M110.7,65.3c0,1.1-0.9,2-2,2H50c-1.1,0-2-0.9-2-2v-38c0-1.1,0.9-2,2-2h58.6c1.1,0,2,0.9,2,2V65.3z"/>
		<path class="st6" d="M110.7,65.3c0,1.1-0.9,2-2,2H50c-1.1,0-2-0.9-2-2v-38c0-1.1,0.9-2,2-2h58.6c1.1,0,2,0.9,2,2V65.3z"/>
	</g>
	<path class="st7" d="M113.6,67.3v-42c0,23.2,9.6,42,21.4,42H113.6z"/>
</g>
<g id="Layer_2">
	<g>
		<path class="st8" d="M142,15.6c6.9,0,6.9,37.9,13.7,37.9c6.9,0,6.9-37.9,13.7-37.9c6.9,0,6.9,37.9,13.7,37.9
			c6.9,0,6.9-37.9,13.7-37.9c6.9,0,6.9,37.9,13.8,37.9c6.9,0,6.9-37.9,13.7-37.9c6.9,0,6.9,37.9,13.8,37.9s6.9-37.9,13.8-37.9"/>
		<path class="st8" d="M142,15.6c6.9,0,6.9,41.2,13.7,41.2c6.9,0,6.9-44,13.7-44c6.9,0,6.9,42.2,13.7,42.2c6.9,0,6.9-41,13.7-41
			c6.9,0,6.9,40.5,13.8,40.5c6.9,0,6.9-39.7,13.7-39.7c6.9,0,6.9,38.7,13.8,38.7s6.9-37.9,13.8-37.9"/>
		<path class="st8" d="M142,15.6c6.9,0,6.9,44.5,13.7,44.5c6.9,0,6.9-50.1,13.7-50.1c6.9,0,6.9,46.5,13.7,46.5c6.9,0,6.9-44,13.7-44
			c6.9,0,6.9,43,13.8,43c6.9,0,6.9-41.5,13.7-41.5c6.9,0,6.9,39.4,13.8,39.4s6.9-37.9,13.8-37.9"/>
		<path class="st8" d="M142,15.6c6.9,0,6.9,47.8,13.7,47.8c6.9,0,6.9-56.1,13.7-56.1c6.9,0,6.9,50.8,13.7,50.8c6.9,0,6.9-47,13.7-47
			c6.9,0,6.9,45.5,13.8,45.5c6.9,0,6.9-43.2,13.7-43.2c6.9,0,6.9,40.2,13.8,40.2s6.9-37.9,13.8-37.9"/>
		<path class="st8" d="M142,15.6c6.9,0,6.9,51.1,13.7,51.1c6.9,0,6.9-62.2,13.7-62.2c6.9,0,6.9,55.1,13.7,55.1
			c6.9,0,6.9-50.1,13.7-50.1c6.9,0,6.9,48,13.8,48c6.9,0,6.9-45,13.7-45c6.9,0,6.9,41,13.8,41s6.9-37.9,13.8-37.9"/>
		<path class="st8" d="M142,15.6c6.9,0,6.9,54.4,13.7,54.4c6.9,0,6.9-68.3,13.7-68.3c6.9,0,6.9,59.4,13.7,59.4
			c6.9,0,6.9-53.1,13.7-53.1c6.9,0,6.9,50.6,13.8,50.6c6.9,0,6.9-46.8,13.7-46.8c6.9,0,6.9,41.7,13.8,41.7s6.9-37.9,13.8-37.9"/>
	</g>
</g>
</svg>
