<?xml version="1.0" encoding="utf-8"?>
<!-- Generator: Adobe Illustrator 23.0.4, SVG Export Plug-In . SVG Version: 6.00 Build 0)  -->
<svg version="1.1" xmlns="http://www.w3.org/2000/svg" xmlns:xlink="http://www.w3.org/1999/xlink" x="0px" y="0px"
	 viewBox="0 0 220.2 266.8" style="enable-background:new 0 0 220.2 266.8;" xml:space="preserve">
<style type="text/css">
	.st0{fill:none;stroke:#D989BC;stroke-miterlimit:10;}
	.st1{fill:#D989BC;}
	.st2{fill:none;stroke:#DD4921;stroke-miterlimit:10;}
	.st3{fill:#605FA4;}
	.st4{font-family:'IBMPlexMono-Medium';}
	.st5{font-size:12px;}
	.st6{fill:none;stroke:#605FA4;stroke-miterlimit:10;}
	.st7{font-size:8px;}
	.st8{fill:#DD4921;}
</style>
<g id="Layer_1">
	<g>
		<g>
			<line class="st0" x1="77.2" y1="89.9" x2="77.2" y2="108.5"/>
			<g>
				<polygon class="st1" points="77.2,113.8 74.2,106.4 77.2,108.1 80.3,106.4 				"/>
			</g>
		</g>
	</g>
	<g>
		<g>
			<line class="st0" x1="77.2" y1="143.9" x2="77.2" y2="162.5"/>
			<g>
				<polygon class="st1" points="77.2,167.8 74.2,160.3 77.2,162.1 80.3,160.3 				"/>
			</g>
		</g>
	</g>
	<g>
		<g>
			<line class="st0" x1="77.2" y1="197.5" x2="77.2" y2="216.2"/>
			<g>
				<polygon class="st1" points="77.2,221.4 74.2,214 77.2,215.8 80.3,214 				"/>
			</g>
		</g>
	</g>
	<rect x="10.2" y="59.9" class="st2" width="140.6" height="30.1"/>
	<rect x="57.4" y="6.4" class="st1" width="8.5" height="8.5"/>
	<rect x="68.7" y="6.4" class="st1" width="8.5" height="8.5"/>
	<rect x="80.1" y="6.4" class="st1" width="8.5" height="8.5"/>
	<rect x="91.4" y="6.4" class="st1" width="8.5" height="8.5"/>
	<rect x="57.4" y="17.8" class="st3" width="8.5" height="31.2"/>
	<rect x="68.7" y="17.8" class="st3" width="8.5" height="31.2"/>
	<rect x="80.1" y="17.8" class="st3" width="8.5" height="31.2"/>
	<rect x="91.4" y="17.8" class="st3" width="8.5" height="31.2"/>
	<text transform="matrix(1 0 0 1 27.9443 78.2427)" class="st4 st5">Shape Assembly</text>
	<rect x="10.2" y="113.8" class="st2" width="140.6" height="30.1"/>
	<text transform="matrix(1 0 0 1 16.0499 131.8678)" class="st4 st5">Shape Tessellation</text>
	<rect x="184.3" y="57.3" class="st3" width="8.5" height="31.2"/>
	<rect x="167.2" y="53.9" class="st2" width="45.4" height="38.6"/>
	<rect x="167.2" y="107.9" class="st2" width="45.4" height="38.6"/>
	<rect x="10.2" y="168.2" class="st2" width="140.6" height="30.1"/>
	<text transform="matrix(1 0 0 1 31.0499 186.3833)" class="st4 st5">Rasterization</text>
	<rect x="184.3" y="111.3" class="st6" width="8.5" height="31.2"/>
	<line class="st6" x1="184.3" y1="111.3" x2="192.8" y2="142.5"/>
	<rect x="185.7" y="166.4" class="st3" width="11.8" height="31.2"/>
	<g>
		<rect x="167.2" y="162.9" class="st2" width="45.4" height="38.6"/>
		<line class="st2" x1="167.2" y1="167.2" x2="212.7" y2="167.2"/>
		<line class="st2" x1="167.2" y1="172.2" x2="212.7" y2="172.2"/>
		<line class="st2" x1="167.2" y1="177.2" x2="212.7" y2="177.2"/>
		<line class="st2" x1="167.2" y1="182.2" x2="212.7" y2="182.2"/>
		<line class="st2" x1="167.2" y1="187.4" x2="212.7" y2="187.4"/>
		<line class="st2" x1="167.2" y1="192.6" x2="212.7" y2="192.6"/>
		<line class="st2" x1="167.2" y1="197.3" x2="212.7" y2="197.3"/>
		<line class="st2" x1="171.1" y1="162.9" x2="171.4" y2="201.4"/>
		<line class="st2" x1="176.5" y1="162.9" x2="176.8" y2="201.5"/>
		<line class="st2" x1="181.5" y1="162.9" x2="181.8" y2="201.5"/>
		<line class="st2" x1="186.3" y1="162.9" x2="186.7" y2="201.5"/>
		<line class="st2" x1="191.7" y1="162.7" x2="192" y2="201.3"/>
		<line class="st2" x1="197.3" y1="162.7" x2="197.6" y2="201.2"/>
		<line class="st2" x1="202.5" y1="162.8" x2="202.8" y2="201.3"/>
		<line class="st2" x1="207.3" y1="162.8" x2="207.6" y2="201.3"/>
	</g>
	<text transform="matrix(1 0 0 1 59.3168 12.4411)" class="st4 st7">1</text>
	<text transform="matrix(1 0 0 1 70.497 12.4414)" class="st4 st7">2</text>
	<text transform="matrix(1 0 0 1 82.3079 12.6808)" class="st4 st7">3</text>
	<text transform="matrix(1 0 0 1 92.8572 12.4414)" class="st4 st7">4</text>
	<text transform="matrix(1 0 0 1 58.3167 33.3579)" class="st4 st7">5</text>
	<text transform="matrix(1 0 0 1 69.9693 33.3581)" class="st4 st7">6</text>
	<text transform="matrix(1 0 0 1 82.3078 33.3583)" class="st4 st7">7</text>
	<text transform="matrix(1 0 0 1 92.8571 34.0064)" class="st4 st7">8</text>
	<text transform="matrix(1 0 0 1 186.498 73.1588)" class="st4 st7">5</text>
	<g>
		<rect x="56.6" y="221.9" class="st2" width="45.4" height="38.6"/>
		<line class="st2" x1="56.6" y1="226.2" x2="102" y2="226.2"/>
		<line class="st2" x1="56.6" y1="231.2" x2="102" y2="231.2"/>
		<line class="st2" x1="56.6" y1="236.2" x2="102" y2="236.2"/>
		<line class="st2" x1="56.6" y1="241.2" x2="102" y2="241.2"/>
		<line class="st2" x1="56.6" y1="246.4" x2="102" y2="246.4"/>
		<line class="st2" x1="56.6" y1="251.7" x2="102" y2="251.7"/>
		<line class="st2" x1="56.6" y1="256.3" x2="102" y2="256.3"/>
		<line class="st2" x1="60.4" y1="221.9" x2="60.7" y2="260.5"/>
		<line class="st2" x1="65.8" y1="222" x2="66.2" y2="260.6"/>
		<line class="st2" x1="70.8" y1="222" x2="71.1" y2="260.6"/>
		<line class="st2" x1="75.7" y1="222" x2="76" y2="260.6"/>
		<line class="st2" x1="81" y1="221.7" x2="81.3" y2="260.3"/>
		<line class="st2" x1="86.6" y1="221.7" x2="87" y2="260.3"/>
		<line class="st2" x1="91.8" y1="221.8" x2="92.1" y2="260.4"/>
		<line class="st2" x1="96.6" y1="221.8" x2="97" y2="260.4"/>
	</g>
	<text transform="matrix(1 0 0 1 75.809 229.8047)" class="st4 st7">5</text>
	<text transform="matrix(1 0 0 1 81.4979 229.8044)" class="st4 st7">5</text>
	<text transform="matrix(1 0 0 1 76.0559 234.7737)" class="st4 st7">5</text>
	<text transform="matrix(1 0 0 1 81.4977 234.7738)" class="st4 st7">5</text>
	<text transform="matrix(1 0 0 1 75.8088 239.6244)" class="st4 st7">5</text>
	<text transform="matrix(1 0 0 1 81.4976 239.6248)" class="st4 st7">5</text>
	<text transform="matrix(1 0 0 1 76.5566 245.0221)" class="st4 st7">5</text>
	<text transform="matrix(1 0 0 1 81.4977 245.0222)" class="st4 st7">5</text>
	<text transform="matrix(1 0 0 1 76.5565 250.3016)" class="st4 st7">5</text>
	<text transform="matrix(1 0 0 1 81.4977 250.3017)" class="st4 st7">5</text>
	<text transform="matrix(1 0 0 1 76.5563 254.96)" class="st4 st7">5</text>
	<text transform="matrix(1 0 0 1 81.4975 254.9601)" class="st4 st7">5</text>
	<g>
		<g>
			<line class="st0" x1="78.6" y1="47.9" x2="78.6" y2="54.6"/>
			<g>
				<polygon class="st1" points="78.6,59.9 75.6,52.4 78.6,54.2 81.7,52.4 				"/>
			</g>
		</g>
	</g>
</g>
<g id="Layer_2">
	<path id="path3" class="st8" d="M217.4,19.7l-1.5-0.9c0-0.1,0-0.3,0-0.4l1.3-1.2c0.1-0.1,0.2-0.3,0.2-0.5c0-0.2-0.2-0.3-0.3-0.4
		l-1.7-0.6c0-0.1-0.1-0.3-0.1-0.4l1-1.5c0.1-0.1,0.1-0.3,0.1-0.5c-0.1-0.2-0.2-0.3-0.4-0.3l-1.8-0.3c-0.1-0.1-0.1-0.3-0.2-0.4
		l0.7-1.6c0.1-0.2,0.1-0.4,0-0.5c-0.1-0.2-0.3-0.2-0.5-0.2l-1.8,0.1c-0.1-0.1-0.2-0.2-0.3-0.3l0.4-1.7c0-0.2,0-0.4-0.1-0.5
		c-0.1-0.1-0.3-0.2-0.5-0.1l-1.7,0.4c-0.1-0.1-0.2-0.2-0.3-0.3l0.1-1.8c0-0.2-0.1-0.4-0.2-0.5c-0.2-0.1-0.3-0.1-0.5,0l-1.6,0.7
		c-0.1-0.1-0.3-0.1-0.4-0.2l-0.3-1.8c0-0.2-0.1-0.3-0.3-0.4c-0.2-0.1-0.4,0-0.5,0.1l-1.5,1c-0.1,0-0.3-0.1-0.4-0.1l-0.6-1.7
		c-0.1-0.2-0.2-0.3-0.4-0.3c-0.2,0-0.4,0-0.5,0.2l-1.2,1.3c-0.1,0-0.3,0-0.4,0l-0.9-1.5c-0.1-0.2-0.3-0.2-0.4-0.2
		c-0.2,0-0.4,0.1-0.4,0.2l-0.9,1.5c-0.1,0-0.3,0-0.4,0l-1.2-1.3c-0.1-0.1-0.3-0.2-0.5-0.2c-0.2,0-0.3,0.2-0.4,0.3l-0.6,1.7
		c-0.1,0-0.3,0.1-0.4,0.1l-1.5-1c-0.1-0.1-0.3-0.1-0.5-0.1c-0.2,0.1-0.3,0.2-0.3,0.4l-0.3,1.8c-0.1,0.1-0.3,0.1-0.4,0.2L189.9,5
		c-0.2-0.1-0.4-0.1-0.5,0c-0.2,0.1-0.2,0.3-0.2,0.5l0.1,1.8c-0.1,0.1-0.2,0.2-0.3,0.3l-1.7-0.4c-0.2,0-0.4,0-0.5,0.1
		c-0.1,0.1-0.2,0.3-0.1,0.5l0.4,1.7c-0.1,0.1-0.2,0.2-0.3,0.3l-1.8-0.1c-0.2,0-0.4,0.1-0.5,0.2c-0.1,0.2-0.1,0.3,0,0.5l0.7,1.6
		c-0.1,0.1-0.1,0.3-0.2,0.4l-1.8,0.3c-0.2,0-0.3,0.1-0.4,0.3c-0.1,0.2,0,0.4,0.1,0.5l1,1.5c0,0.1-0.1,0.3-0.1,0.4l-1.7,0.6
		c-0.2,0.1-0.3,0.2-0.3,0.4c0,0.2,0,0.4,0.2,0.5l1.3,1.2c0,0.1,0,0.3,0,0.4l-1.5,0.9c-0.2,0.1-0.2,0.3-0.2,0.4
		c0,0.2,0.1,0.4,0.2,0.4l1.5,0.9c0,0.1,0,0.3,0,0.4l-1.3,1.2c-0.1,0.1-0.2,0.3-0.2,0.5c0,0.2,0.2,0.3,0.3,0.4l1.7,0.6
		c0,0.1,0.1,0.3,0.1,0.4l-1,1.5c-0.1,0.1-0.1,0.3-0.1,0.5c0.1,0.2,0.2,0.3,0.4,0.3l1.8,0.3c0.1,0.1,0.1,0.3,0.2,0.4l-0.7,1.6
		c-0.1,0.2-0.1,0.4,0,0.5c0.1,0.2,0.3,0.2,0.5,0.2l1.8-0.1c0.1,0.1,0.2,0.2,0.3,0.3l-0.4,1.7c0,0.2,0,0.4,0.1,0.5
		c0.1,0.1,0.3,0.2,0.5,0.1l1.7-0.4c0.1,0.1,0.2,0.2,0.3,0.3l-0.1,1.8c0,0.2,0.1,0.4,0.2,0.5c0.2,0.1,0.3,0.1,0.5,0l1.6-0.7
		c0.1,0.1,0.3,0.1,0.4,0.2l0.3,1.8c0,0.2,0.1,0.3,0.3,0.4c0.2,0.1,0.4,0,0.5-0.1l1.5-1c0.1,0,0.3,0.1,0.4,0.1l0.6,1.7
		c0.1,0.2,0.2,0.3,0.4,0.3c0.2,0,0.4,0,0.5-0.2l1.2-1.3c0.1,0,0.3,0,0.4,0L199,38c0.1,0.2,0.3,0.2,0.4,0.2s0.4-0.1,0.4-0.2l0.9-1.5
		c0.1,0,0.3,0,0.4,0l1.2,1.3c0.1,0.1,0.3,0.2,0.5,0.2c0.2,0,0.3-0.2,0.4-0.3l0.6-1.7c0.1,0,0.3-0.1,0.4-0.1l1.5,1
		c0.1,0.1,0.3,0.1,0.5,0.1c0.2-0.1,0.3-0.2,0.3-0.4l0.3-1.8c0.1-0.1,0.3-0.1,0.4-0.2l1.6,0.7c0.2,0.1,0.4,0.1,0.5,0
		c0.2-0.1,0.2-0.3,0.2-0.5l-0.1-1.8c0.1-0.1,0.2-0.2,0.3-0.3l1.7,0.4c0.2,0,0.4,0,0.5-0.1c0.1-0.1,0.2-0.3,0.1-0.5l-0.4-1.7
		c0.1-0.1,0.2-0.2,0.3-0.3l1.8,0.1c0.2,0,0.4-0.1,0.5-0.2c0.1-0.2,0.1-0.3,0-0.5l-0.7-1.6c0.1-0.1,0.1-0.3,0.2-0.4l1.8-0.3
		c0.2,0,0.3-0.1,0.4-0.3c0.1-0.2,0-0.4-0.1-0.5l-1-1.5c0-0.1,0.1-0.3,0.1-0.4l1.7-0.6c0.2-0.1,0.3-0.2,0.3-0.4c0-0.2,0-0.4-0.2-0.5
		l-1.3-1.2c0-0.1,0-0.3,0-0.4l1.5-0.9c0.2-0.1,0.2-0.3,0.2-0.4S217.5,19.8,217.4,19.7L217.4,19.7z M207.2,32.3
		c-0.6-0.1-1-0.7-0.8-1.3c0.1-0.6,0.7-1,1.3-0.8c0.6,0.1,1,0.7,0.8,1.3S207.8,32.5,207.2,32.3z M206.7,28.8
		c-0.5-0.1-1.1,0.2-1.2,0.8l-0.5,2.5c-1.7,0.8-3.5,1.2-5.5,1.2c-2,0-3.9-0.4-5.6-1.2l-0.5-2.5c-0.1-0.5-0.6-0.9-1.2-0.8l-2.2,0.5
		c-0.4-0.4-0.8-0.9-1.2-1.4h10.8c0.1,0,0.2,0,0.2-0.1v-3.8c0-0.1-0.1-0.1-0.2-0.1h-3.2v-2.4h3.4c0.3,0,1.7,0.1,2.1,1.8
		c0.1,0.5,0.4,2.3,0.6,2.8c0.2,0.6,1,1.9,1.9,1.9h5.4c0.1,0,0.1,0,0.2,0c-0.4,0.5-0.8,1-1.2,1.4L206.7,28.8L206.7,28.8z M191.7,32.3
		c-0.6,0.1-1.2-0.2-1.3-0.8c-0.1-0.6,0.2-1.2,0.8-1.3c0.6-0.1,1.2,0.2,1.3,0.8C192.6,31.6,192.2,32.2,191.7,32.3z M187.5,15.6
		c0.2,0.5,0,1.2-0.5,1.4c-0.5,0.2-1.2,0-1.4-0.5c-0.2-0.5,0-1.2,0.5-1.4C186.7,14.8,187.3,15,187.5,15.6z M186.3,18.6l2.3-1
		c0.5-0.2,0.7-0.8,0.5-1.3l-0.5-1.1h1.9v8.5h-3.8c-0.3-1.2-0.5-2.4-0.5-3.6C186.2,19.5,186.2,19.1,186.3,18.6z M196.5,17.8v-2.5h4.5
		c0.2,0,1.6,0.3,1.6,1.3c0,0.9-1.1,1.2-2,1.2L196.5,17.8L196.5,17.8z M212.8,20c0,0.3,0,0.7,0,1h-1.4c-0.1,0-0.2,0.1-0.2,0.2v0.6
		c0,1.5-0.8,1.8-1.6,1.9c-0.7,0.1-1.5-0.3-1.6-0.7c-0.4-2.3-1.1-2.8-2.2-3.6c1.3-0.8,2.7-2.1,2.7-3.8c0-1.8-1.2-2.9-2.1-3.5
		c-1.2-0.8-2.5-0.9-2.9-0.9h-14.1c1.9-2.1,4.5-3.6,7.4-4.2l1.7,1.7c0.4,0.4,1,0.4,1.4,0l1.9-1.8c3.9,0.7,7.2,3.1,9.1,6.5l-1.3,2.9
		c-0.2,0.5,0,1.1,0.5,1.3l2.4,1.1C212.7,19.1,212.8,19.6,212.8,20L212.8,20z M198.7,5.5c0.4-0.4,1.1-0.4,1.5,0
		c0.4,0.4,0.4,1.1,0,1.5c-0.4,0.4-1.1,0.4-1.5,0C198.2,6.6,198.2,5.9,198.7,5.5z M211.3,15.6c0.2-0.5,0.9-0.8,1.4-0.5
		c0.5,0.2,0.8,0.9,0.5,1.4c-0.2,0.5-0.9,0.8-1.4,0.5C211.3,16.8,211.1,16.2,211.3,15.6z"/>
</g>
</svg>
